<svg xmlns="http://www.w3.org/2000/svg" viewBox="0 0 3000 3000" id="panda-is-exercising-with-dumbbell"><linearGradient id="a" x1="499.513" x2="500.667" y1="-6311.088" y2="-6311.088" gradientTransform="matrix(960.0547 0 0 -960.0548 -478565.344 -6057907)" gradientUnits="userSpaceOnUse"><stop offset="0" stop-color="#fff"></stop><stop offset="1" stop-color="#f3efe6"></stop></linearGradient><path fill="url(#a)" d="M995.724 1118.332s31.973-320.059 219.639-479.277c187.666-159.219 504.533-88.523 627.511 0 122.979 88.522 217.397 222.748 241.465 405.744 24.068 182.996 57.39 368.135-149.964 490.326-207.353 122.192-546.983 95.315-683.16 40.731-136.177-54.585-268.419-155.38-255.491-457.524z"></path><linearGradient id="b" x1="498.67" x2="499.823" y1="-6313.683" y2="-6313.683" gradientTransform="matrix(270.9106 0 0 -270.9106 -133297.047 -1709712.5)" gradientUnits="userSpaceOnUse"><stop offset="0" stop-color="#322c2e"></stop><stop offset="1" stop-color="#494345"></stop></linearGradient><path fill="url(#b)" d="M1797.837 626.094s62.168-61.095 162.07-46.747c99.902 14.348 148.038 111.626 150.352 153.473 2.314 41.848-45.872 133.05-54.641 142.759-8.769 9.709-14.058 9.767-14.058 9.767s-69.229-121.323-112.737-173.625c-43.508-52.302-130.986-85.627-130.986-85.627z"></path><linearGradient id="c" x1="498.418" x2="499.571" y1="-6313.342" y2="-6313.342" gradientTransform="matrix(296.2581 0 0 -296.2581 -146677.25 -1869702.875)" gradientUnits="userSpaceOnUse"><stop offset="0" stop-color="#322c2e"></stop><stop offset="1" stop-color="#494345"></stop></linearGradient><path fill="url(#c)" d="M1060.523 839.466s-61.096-10.182-75.907-103.215c-14.811-93.032 80.072-184.213 135.614-211.521 55.542-27.307 137.928-2.777 159.682 9.257 21.754 12.034 44.896 35.639 44.896 35.639s-125.894 72.205-161.533 114.323c-35.64 42.12-102.752 155.517-102.752 155.517z"></path><linearGradient id="d" x1="498.813" x2="499.966" y1="-6313.208" y2="-6313.208" gradientTransform="matrix(323.3743 0 0 -323.3743 -159682.5 -2040499)" gradientUnits="userSpaceOnUse"><stop offset="0" stop-color="#322c2e"></stop><stop offset="1" stop-color="#494345"></stop></linearGradient><path fill="url(#d)" d="m1681.663 945.342-43.739 13.538s-41.656 99.975 4.513 174.262c46.169 74.286 151.698 68.385 183.287 68.385s130.87-34.713 156.558-71.857c25.688-37.144 0-152.74 0-152.74l-68.038-117.679c-.001.002-146.281 70.47-232.581 86.091z"></path><linearGradient id="e" x1="498.609" x2="499.762" y1="-6313.213" y2="-6313.213" gradientTransform="matrix(322.1998 0 0 -322.1998 -159514.281 -2033101.5)" gradientUnits="userSpaceOnUse"><stop offset="0" stop-color="#322c2e"></stop><stop offset="1" stop-color="#494345"></stop></linearGradient><path fill="url(#e)" d="M1305.369 883.436s78.221 44.896 119.414 56.93c41.193 12.034 72.758 22.53 72.758 22.53s11.48 32.786 11.48 73.86c0 41.075-27.771 154.935-176.807 150.769s-194.858-98.586-194.858-98.586.926-91.643 34.251-155.054 62.021-92.106 62.021-92.106l71.741 41.657z"></path><linearGradient id="f" x1="497.699" x2="498.853" y1="-6316.02" y2="-6316.02" gradientTransform="matrix(176.3354 0 0 -176.3354 -86305 -1112526.625)" gradientUnits="userSpaceOnUse"><stop offset="0" stop-color="#322c2e"></stop><stop offset="1" stop-color="#494345"></stop></linearGradient><path fill="url(#f)" d="M1462.274 1226.869s-15.506-21.06 6.48-35.177c21.985-14.116 78.221-22.217 78.221-22.217s78.221 13.191 94.884 24.993c16.662 11.803 18.514 23.606 18.514 23.606s-14.58 31.936-84.933 34.945c-70.353 3.009-113.166-26.15-113.166-26.15z"></path><linearGradient id="g" x1="499.558" x2="500.712" y1="-6311.036" y2="-6311.036" gradientTransform="matrix(1093.6191 0 0 -1093.6191 -545451.688 -6900125)" gradientUnits="userSpaceOnUse"><stop offset="0" stop-color="#322c2e"></stop><stop offset="1" stop-color="#494345"></stop></linearGradient><path fill="url(#g)" d="m1137.355 1519.851-113.86-122.191s-123.58 79.553-145.797 318.178 84.701 303.349 84.701 303.349 52.764 33.11 122.192 26.544c69.427-6.566 80.198-61.704 82.387-90.804 2.188-29.101-3.679-133.3-3.679-133.3s169.205-68.612 408.67-42.119c239.465 26.494 267.981 45.453 267.981 45.453s-10.175 104.51-33.318 157.275c-23.142 52.764 19.902 108.768 85.164 108.305 65.261-.462 130.764-26.705 174.03-78.22 43.267-51.517 70.352-230.498 70.352-230.498s-45.59-170.791-59.823-195.784c-14.232-24.995-56.159-118.066-56.159-118.066s-156.171 160.648-443.136 151.391c-286.965-9.258-315.661-36.103-315.661-36.103l-124.044-63.41z"></path><linearGradient id="h" x1="499.218" x2="500.371" y1="-6312.042" y2="-6312.042" gradientTransform="matrix(568.603 0 0 -568.603 -282693 -3587088.25)" gradientUnits="userSpaceOnUse"><stop offset="0" stop-color="#fff"></stop><stop offset="1" stop-color="#f3efe6"></stop></linearGradient><path fill="url(#h)" d="m1163.693 1919.287.97 62.851 59.707 46.891s112.875-24.574 265.211-25.042 277.714 32.415 277.714 32.415l28.03-4.207 4.98-20.333 19.287-93.964s-154.128-40.297-293.908-38.893c-139.78 1.403-361.991 40.282-361.991 40.282z"></path><linearGradient id="i" x1="498.623" x2="499.777" y1="-6313.452" y2="-6313.452" gradientTransform="matrix(345.7145 0 0 -345.7145 -171452.234 -2180450.25)" gradientUnits="userSpaceOnUse"><stop offset="0" stop-color="#322c2e"></stop><stop offset="1" stop-color="#494345"></stop></linearGradient><path fill="url(#i)" d="M993.41 2045.73s-71.973 68.415-63.641 155.892c8.331 87.479 46.047 119.659 46.047 119.659s-46.001 35.163-46.718 69.182c-.717 34.02 3.68 38.186 64.313 38.186s220.315 5.554 248.086-7.637 42.351-35.408 42.351-35.408l4.86-86.09 39.118-23.814s-2.322-71.3-48.144-167.804c-45.822-96.503-115.151-134.44-115.151-134.44s-23.204 90.644-171.121 72.274z"></path><linearGradient id="j" x1="499.082" x2="500.236" y1="-6312.49" y2="-6312.49" gradientTransform="matrix(475.8767 0 0 -475.8767 -236277.281 -3001829.25)" gradientUnits="userSpaceOnUse"><stop offset="0" stop-color="#322c2e"></stop><stop offset="1" stop-color="#494345"></stop></linearGradient><path fill="url(#j)" d="m1224.37 2029.03 68.038-9.843s104.141-21.216 227.258-19.364c123.117 1.851 253.64 38.648 253.64 38.648l-36.565 29.391s-24.531 1.388-62.947 98.586c-38.416 97.198 5.019 89.33-32.204 86.552-37.223-2.777-203.385-18.514-203.385-18.514l-110.381 41.216s-10.422-69.449-27.084-121.751c-16.662-52.303-76.37-124.921-76.37-124.921z"></path><linearGradient id="k" x1="499.025" x2="500.179" y1="-6313.075" y2="-6313.075" gradientTransform="matrix(389.609 0 0 -389.609 -192772.266 -2457394.25)" gradientUnits="userSpaceOnUse"><stop offset="0" stop-color="#322c2e"></stop><stop offset="1" stop-color="#494345"></stop></linearGradient><path fill="url(#k)" d="M1678.886 2272.902s44.207 22.217 46.172 38.88c1.965 16.662 13.999 96.272 13.999 96.272s113.86 44.895 219.852 36.102c105.992-8.794 134.225-28.234 134.225-28.234l8.794-38.224-55.779-61.751s45.427-44.887 44.671-117.307c-.756-72.42-68.038-152.909-68.038-152.909s-35.639 44.348-137.003 52.215c0 0-83.343-61.696-85.626-68.915-2.283-7.22-71.278 34.666-71.278 34.666s-48.599 51.839-62.484 105.529c-13.885 53.691-13.885 93.958-13.885 93.958l26.38 9.718z"></path><linearGradient id="l" x1="496.877" x2="498.031" y1="-6318.708" y2="-6318.708" gradientTransform="matrix(119.571 0 0 -119.571 -57712.164 -754476.25)" gradientUnits="userSpaceOnUse"><stop offset="0" stop-color="#fff"></stop><stop offset="1" stop-color="#fdfbf9"></stop></linearGradient><path fill="url(#l)" d="m1766.132 1028.076-66.187 30.177s4.86 40.176 34.251 50.359c29.391 10.182 84.238-17.588 84.238-17.588l19.439-28.465-9.72-46.053-14.117-11.571-47.904 23.141z"></path><linearGradient id="m" x1="496.424" x2="497.577" y1="-6318.708" y2="-6318.708" gradientTransform="matrix(119.4395 0 0 -119.4395 -57996.371 -753653.25)" gradientUnits="userSpaceOnUse"><stop offset="0" stop-color="#fff"></stop><stop offset="1" stop-color="#fdfbf9"></stop></linearGradient><path fill="url(#m)" d="M1318.328 995.908s-39.342 41.193-12.96 74.981c26.382 33.788 67.113 36.565 90.255 31.473 23.142-5.091 38.416-44.11 38.416-44.11l-115.711-62.344z"></path><path fill="#59424b" d="m1166.335 1820.455-6.362 47.457 8.161 36.565s5.091 15.042 5.785 15.274c.695.231 153.665-36.203 188.379-40.781 34.713-4.578 105.76-5.735 105.76-5.735s208.05 12.69 271.922 24.048c63.873 11.36 79.61 20.616 79.61 20.616s10.358-39.541 16.056-58.071c5.698-18.531 3.615-39.358 3.615-39.358s-189.979-34.553-295.286-43.658c-105.307-9.107-377.64 43.643-377.64 43.643zM553.243 2045.73l-52.302 34.627s6.154 44.896 27.377 64.336c21.222 19.44 24.925 12.034 24.925 12.034l298.076-140.705 60.629-32.4-32.399-90.717-17.01 4.377-309.296 148.448zm1527.625-64.19s119.974 55.542 178.36 85.396c58.386 29.853 186.826 93.726 186.826 93.726s31.242-8.332 40.962-40.961c9.72-32.631 8.331-42.352 8.331-42.352s-276.319-147.879-306.173-163.153c-29.854-15.274-59.707-25.688-59.707-25.688l-48.599 93.032z"></path><path fill="#9b3a69" d="M2347.778 2119.074s-66.267 122.817-75.292 181.83c-9.025 59.013 10.725 62.125 37.646 58.833 26.921-3.292 110.928-45.707 174.801-135.235 63.873-89.529 109.614-164.968 135.483-242.962s10.314-110.388 10.314-110.388-11.108-43.045-99.281 17.356c-88.172 60.402-118.026 136.078-118.026 136.078l73.592 47.21s20.134 13.885 0 52.07c-20.134 38.186-34.197 36.797-34.197 36.797l-94.824-48.329-10.216 6.74z"></path><linearGradient id="n" x1="499.398" x2="500.552" y1="-6312.464" y2="-6312.464" gradientTransform="matrix(483.4861 0 0 -483.4861 -239133.078 -3049801)" gradientUnits="userSpaceOnUse"><stop offset="0" stop-color="#af533e"></stop><stop offset="1" stop-color="#de765e"></stop></linearGradient><path fill="url(#n)" d="m2319.002 2371.981 316.364 119.847s54.111-10.044 109.917-70.815c55.807-60.772 82.277-89.468 112.472-162.459s15.274-133.994 15.274-133.994l-233.969-240.912s-12.497 140.938-104.141 267.989c-91.643 127.05-215.917 220.344-215.917 220.344z"></path><path fill="#9b3a69" d="M596.866 2031.874s-75.676-102.984-125.663-138.969c-49.987-35.987-110.736-46.053-107.612-8.562 3.124 37.49 13.679 120.455 47.454 181.898s100.425 165.584 152.842 210.711c52.417 45.128 75.328 74.981 106.918 83.313 31.589 8.332 43.739 10.761 53.112-8.332 9.373-19.093-25.688-160.723-27.771-163.153-2.083-2.431-48.845-76.453-48.845-76.453l-102.81 44.232s-25.383-10.824-36.145-35.124c-10.761-24.3-7.406-41.077-7.406-41.077l95.926-48.484z"></path><linearGradient id="o" x1="498.837" x2="499.991" y1="-6312.37" y2="-6312.37" gradientTransform="matrix(502.5667 0 0 -502.5667 -250583.031 -3170203.25)" gradientUnits="userSpaceOnUse"><stop offset="0" stop-color="#af533e"></stop><stop offset="1" stop-color="#de765e"></stop></linearGradient><path fill="url(#o)" d="M158.435 2090.543s-43.045 48.357-42.35 67.569c.694 19.211 31.242 151.123 119.415 244.849 88.172 93.726 119.414 85.395 149.962 79.147 30.548-6.249 310.339-110.128 310.339-110.128s-105.132-42.21-175.376-141.046c-70.244-98.835-123.914-195.672-123.914-195.672s-40.219-142.152-36.042-151.615c4.177-9.462-34.019 24.995-34.019 24.995l-168.015 181.901z"></path><path fill="#7f5c6a" d="M508.347 2121.435s196.952-112.68 291.593-149.561l-1.57-43.793-290.024 151.351c.001-.001-4.859 13.886.001 42.003zm1660.693-207.239s-.926 24.531-13.885 38.88c0 0 236.052 110.62 321.678 162.459l11.571-21.292 3.873-16.119s-247.33-144.489-323.237-163.928z"></path><path fill="#cfbdb2" d="M1434.04 548.634s-156.442 139.034-161.996 244.786c-5.554 105.753 119.415 125.886 119.415 125.886s-71.51-22.911-120.803-52.302c-49.293-29.39-39.805-29.622-39.805-29.622s-113.629 141.77-99.743 211.822c13.885 70.052 38.879 115.171 133.3 138.433 0 0-124.274 86.441-57.625 264.174 66.65 177.733 485.74 153.664 485.74 153.664s-491.294 68.502-626.445-174.03c-135.151-242.531-57.393-451.356-57.393-451.356s63.872-390.427 425.355-431.455z"></path><path fill="#cfbdb2" d="M1452.554 1203.726s-43.786 2.811-31.752 49.559c12.034 46.747 125.71 52.73 187.268 39.308 61.559-13.422 58.319-56.468 52.302-74.519-6.017-18.051 11.108 18.487-59.245 35.162-70.353 16.677-130.523-20.814-130.523-20.814s-24.53-2.776-18.05-28.696z"></path><path fill="#cfbdb2" d="M1582.614 1277.782s72.204 7.406 92.569 72.203c0 0 4.629-49.987-46.285-78.683-50.913-28.697-46.284 6.48-46.284 6.48zm77.758 159.45s111.546-84.701 116.406 0c0 0-3.009-51.376-116.406 0zm-407.757 572.676s47.199-82.521 211.741-94.323c164.542-11.803 281.179 83.302 296.453 110.384 15.274 27.082 38.879 10.435 38.879 10.435l8.836-67.36 11.942-54.468s-193.693-48.865-381.125-40.591c-187.432 8.275-271.438 46.46-271.438 46.46v61.095l63.873 44.429 20.839-16.061z"></path><path fill="#7f5c6a" d="m1219.303 1801.627-3.784 49.391s312.548-72.899 567.079 8.33l9.114-40.268s-302.313-92.532-572.409-17.453z"></path><linearGradient id="p" x1="498.401" x2="499.554" y1="-6313.57" y2="-6313.57" gradientTransform="matrix(292.7332 0 0 -292.7332 -144911.234 -1847103.875)" gradientUnits="userSpaceOnUse"><stop offset="0" stop-color="#fff"></stop><stop offset="1" stop-color="#f3efe6"></stop></linearGradient><path fill="url(#p)" d="M1324.808 595.083s-111.083 98.587-149.962 181.899c0 0-104.14 164.542-110.389 387.403-6.249 222.86 124.815 370.143 183.287 401.287 58.472 31.145-53.219 2.777-53.219 2.777s-123.513-74.089-161.58-205.392c-38.067-131.302-57.718-185.481-38.097-273.654 19.622-88.173 71.692-238.829 71.692-238.829s93.727-177.733 146.491-208.28c52.764-30.548 111.777-47.211 111.777-47.211z"></path><path fill="#544d50" d="m1151.703 512.32 24.994 6.945s-122.191 55.917-130.523 168.388C1037.843 800.124 1088 811.728 1088 811.728s-31.135 22.742-31.961 24.531c-.825 1.789-38.562-37.986-43.653-47.243-5.091-9.258-31.202-77.63 0-148.111 31.203-70.481 81.925-119.243 139.317-128.585zm-77.295 924.912s-126.82 110.765-135.151 301.965c-8.331 191.199 73.13 302.268 73.13 302.268s-114.786-13.981-143.482-185.179c-28.697-171.198 93.495-388.313 93.495-388.313l61.096-76.304 50.912 45.563zm-86.321 627.108s-40.962 208.923 63.179 313.345c0 0-55.542-10.132-65.956 3.06-10.414 13.191-11.108 49.065-11.108 49.065l-50.562-16.305s3.352-30.678 10.295-50.812c6.943-20.134 32.63-41.656 32.63-41.656l-27.771-57.625s-6.148-70.281-3.503-119.906c2.644-49.622 52.796-79.166 52.796-79.166z"></path><path fill="#fff" d="m2620.416 1981.54 256.3 242.962v-30.285l-248.995-236.977zM459.137 1873.042s-57.707-15.081-61.179 33.518c-3.471 48.598 61.179 224.943 61.179 224.943s-102.835-147.88-99.363-232.581c3.471-84.701 99.363-25.88 99.363-25.88z"></path><path fill="#1d110f" d="m1669.427 1214.199-.221 1.347-.272 1.651c-.056.545-.212 1.415-.781 2.974-1.877 6.399-5.948 11.063-11.967 16.078-12.047 9.582-30.919 15.844-53.543 19.482-11.35 1.667-23.635 3.043-36.676 3.422-6.55.14-13.343.167-19.953.098-6.95-.203-13.984-.63-21.073-1.36-14.237-1.492-28.815-4.502-43.491-9.412-7.285-2.705-14.611-5.904-21.566-10.9-3.437-2.552-6.881-5.47-9.696-9.558-1.503-1.913-2.7-4.208-3.625-6.786a12.48 12.48 0 0 1-1.094-3.934l-.314-2.086-.135-1.047-.062-.524-.029-.261c.021-.568-.088.9.04-1.339l.266-2.775.133-1.388.638-2.268a49.677 49.677 0 0 1 1.62-4.499c.625-1.212 1.285-2.2 1.954-3.301 2.675-4.319 6.033-7.496 9.408-10.307 6.833-5.516 14.121-9.239 21.405-12.46 14.621-6.13 29.552-9.272 43.96-11.431 14.38-1.978 28.63-2.934 41.664-2.359 13.448.496 26.08 1.841 37.533 4.39 22.965 4.838 41.736 12.8 53.554 23.261 5.841 5.238 9.885 11.138 11.2 16.298 1.378 4.949 1.056 7.995 1.196 7.915l-.073 1.079zm-16.941-1.076c-.103-.017-.116-.856-.714-2.539-.463-1.641-2.523-4.424-6.542-7.577-8.101-6.512-24.906-12.605-45.695-15.77-10.462-1.504-21.897-2.787-33.974-3.141-12.486-.261-25.244-.354-38.517 1.135a189.056 189.056 0 0 0-39.422 8.385c-12.255 4.485-25.325 11.254-25.78 20.583.143-2.123.049-.541.085-.992l.015.083.028.168.044.335.042.677c-.068.455.014.937.271 1.425.246.974.618 2.026 1.398 3.088 1.199 2.156 3.332 4.329 5.692 6.317 4.822 4.002 10.9 7.261 17.147 10.047 12.722 5.413 26.511 8.389 39.891 10.401 6.746.938 13.37 1.573 19.818 2.003 6.793.364 13.119.519 19.336.231 12.485-.469 24.267-1.722 34.831-4.108 21.13-4.365 37.834-12.158 45.706-19.548 3.84-3.377 5.873-7.394 5.774-7.797.073-.143.179-.173.251-.386l.101-1.07.156-1.666.128-1.36-.07 1.076z"></path><path fill="#1d110f" d="m1000.853 967.842 11.613-37.856c7.864-24.724 20.213-62.031 39.833-107.233 10.016-22.637 21.888-47.543 37.56-73.435 14.974-26.209 34.907-52.877 58.873-78.889 24.084-25.96 53.708-50.217 87.556-70.374 33.743-20.411 71.232-37.095 110.623-51.775l7.4-2.812 4.628-1.724 3.734-1.155 15.032-4.648 15.259-4.642 16.882-3.657 17.047-3.614c5.699-1.148 11.29-1.547 16.979-2.356 11.349-1.302 22.766-3.26 34.357-3.402 46.256-2.831 94.198.251 142.063 9.85 95.528 19.131 192.382 60.81 274.987 128.15 10.185 8.561 20.691 16.821 30.047 26.502l14.46 14.071 3.62 3.527.905.882 1.222 1.334 1.625 1.84 6.508 7.363c8.658 9.902 17.541 19.274 25.788 30.677 8.453 10.921 16.942 21.873 24.119 33.444 30.141 45.597 54.196 95.975 70.698 148.914 16.599 52.936 26.685 107.944 32.75 163.011 3.137 27.604 5.434 54.907 7.889 82.56 2.478 27.083 3.785 56.059 2.787 84.046-1.895 56.251-12.893 114.246-41.178 164.795-6.57 12.85-15.128 24.49-23.376 36.257-9.221 11.023-18.178 22.293-28.785 31.929-9.835 10.48-21.464 18.758-32.383 27.866-5.746 4.141-11.714 7.941-17.56 11.913l-8.812 5.886c-3.689 2.436-6.107 3.554-9.221 5.394-11.74 6.712-23.406 13.444-36.328 19.429-12.539 6.475-25.252 11.812-37.95 17.045-25.407 10.574-51.46 18.868-77.514 26.389-52.314 14.298-105.195 23.182-157.442 27.87-104.617 9.19-206.214 2.471-300.9-11.259l-8.881-1.232-2.215-.309-1.987-.343-1.082-.221-4.322-.887-17.212-3.528c-11.518-2.626-22.558-3.906-34.391-8.121l-34.683-10.883c-11.103-4.265-21.686-9.27-32.415-13.842-5.285-2.44-10.762-4.432-15.823-7.225l-14.992-8.621-14.852-8.578c-4.951-2.815-9.894-5.595-14.301-9.164l-26.972-20.037c-4.612-3.12-8.534-7.026-12.529-10.805l-11.935-11.272c-16.645-14.21-29.016-31.794-42.631-47.594-6.271-8.311-11.44-17.265-17.09-25.732-5.419-8.613-11.318-16.841-15.212-25.984-8.438-17.913-17.878-34.922-23.162-52.927l-9.069-26.148c-2.853-8.62-4.252-17.454-6.386-25.967l-5.729-25.266c-1.788-8.296-2.228-16.618-3.369-24.705-1.62-16.224-4.644-31.84-4.253-46.913l-.834-43.321 2.749-39.216c.966-24.975 5.84-46.605 8.559-65.685 2.531-19.156 6.78-34.92 9.91-47.785l9.611-39.451.103-.351zm42.611 12.588-9.331 37.443c-3.055 12.209-7.229 27.206-9.67 45.223-2.638 17.956-7.471 38.474-8.433 61.77l-2.833 36.699.56 40.219c-.519 14.068 2.309 28.327 3.669 43.301 1.009 7.434 1.311 15.157 2.922 22.736l5.127 23.071c1.907 7.763 3.072 15.901 5.637 23.719 2.661 7.785 5.364 15.688 8.104 23.707 4.604 16.43 13.149 31.635 20.57 47.854 3.374 8.321 8.758 15.606 13.481 23.407 4.962 7.642 9.414 15.805 14.921 23.332 12.07 14.21 22.748 30.313 37.568 43.185 27.053 28.275 61.567 51.259 99.594 69.882 9.698 4.28 19.377 9.084 29.315 13.099l30.48 10.128c9.771 3.915 21.885 5.634 33.066 8.362 5.698 1.259 11.417 2.525 17.156 3.792l4.308.953 1.078.238c.552.127-.962-.185.191.024l2.159.332 8.656 1.336c92.32 14.844 191.295 22.868 292.806 15.513 50.652-3.899 101.974-11.28 152.298-24.846 25.045-7.081 50.07-14.871 74.357-24.82 12.184-4.934 24.341-9.953 35.844-15.82 11.667-5.237 23.499-11.942 35.34-18.623 2.728-1.591 6.438-3.444 8.365-4.821l8.146-5.392c5.403-3.634 10.954-7.096 16.265-10.864 9.975-8.304 20.773-15.783 29.689-25.263 9.74-8.684 17.825-18.863 26.276-28.749 7.465-10.618 15.323-21.039 21.305-32.656 12.646-22.763 22.281-47.39 28.3-73.146 6.024-25.762 8.827-52.383 9.645-79.162.491-13.379.155-26.886-.305-40.298l-1.131-20.085-1.733-20.571c-2.565-27.153-5.034-54.635-8.248-81.539-6.243-53.95-16.327-106.893-32.471-157.421-16.006-50.53-39.105-98.102-68.307-140.647-6.994-10.955-14.929-20.808-22.758-30.685-7.3-9.998-16.66-19.664-25.407-29.376l-6.612-7.269-1.651-1.816c-.103-.106-.934-1.043-.44-.468l-.865-.816-3.455-3.259-13.773-13.015c-8.869-8.971-18.919-16.592-28.607-24.516-78.623-62.314-171.139-100.579-261.204-117.258-45.122-8.402-89.946-10.559-132.514-7.342-10.724.242-21.104 2.252-31.478 3.572-5.13.804-10.445 1.241-15.356 2.326l-14.593 3.319-14.462 3.212-15.073 4.82-14.964 4.862-3.717 1.208c1.526-.514-.088.06.022.037l-.889.352-1.776.704-7.081 2.81c-37.756 14.802-72.73 30.842-103.423 49.536-30.783 18.576-56.856 40.249-78.286 63.605-21.297 23.448-39.221 47.471-52.907 71.824-14.3 23.89-25.332 47.337-34.685 68.806-18.49 43.362-29.83 78.161-37.482 102.658l-11.402 37.92.102-.353z"></path><path fill="#1d110f" d="m1798.276 605.627 5.895-3.967c3.907-2.512 9.524-5.75 16.787-9.688 7.282-3.87 16.298-8.151 26.944-12.308 5.282-2.156 11.178-3.818 17.222-5.886 6.147-1.805 12.752-3.312 19.539-5.099a494.527 494.527 0 0 1 21.734-3.434c7.636-.248 15.484-1.172 23.58-.803 16.19.636 33.271 3.108 49.981 8.603 8.346 2.802 16.929 5.39 24.769 9.888 8.072 4.002 16.29 7.95 23.552 13.484 15.668 9.666 28.799 22.169 42.288 35.097 2.992 3.313 5.97 6.289 8.971 9.874l8.918 11.029 7.886 11.434 6.965 12.003c8.642 16.332 14.42 34.069 16.809 51.701 4.715 35.493-2.938 68.841-13.734 94.471-10.968 25.747-23.287 45.508-32.932 58.63-4.824 6.566-8.751 11.687-11.611 15.137-2.831 3.446-4.58 5.344-4.73 5.49l-23.271-23.854c-.416.32 5.929-4.838 15.53-15.806 9.364-11.028 22.789-27.5 33.459-50.052 10.561-22.292 19.416-50.839 15.864-81.32-1.611-15.134-6.072-30.531-13.628-44.877l-6.037-10.625-6.927-10.241-7.55-9.547c-2.591-3.202-5.912-6.412-8.834-9.619-12.035-11.218-24.626-23.117-38.684-31.507-6.62-5.007-14.103-8.183-21.331-11.586-7.05-3.889-14.678-5.878-22.038-8.169-14.732-4.628-29.739-5.602-43.739-5.616-7.017.006-13.837 1.226-20.408 1.693a556.59 556.59 0 0 0-18.792 3.929c-5.881 1.933-11.613 3.385-16.846 5.485-5.175 2.286-10.192 4.099-14.68 6.384-9.044 4.408-16.632 8.791-22.676 12.657-6.04 3.849-10.486 7.353-13.337 9.581l-4.257 3.59-20.651-26.156zm-479.28-18.157-4.077-4.741a190.536 190.536 0 0 0-13.172-13.02l-10.291-8.556c-3.962-2.81-8.136-6.073-12.814-9.204-9.464-6.024-20.41-12.71-33.339-17.482l-9.865-3.737c-3.401-1.09-6.961-1.813-10.534-2.78-7.117-2.244-14.703-2.987-22.508-3.934-1.95-.224-3.914-.558-5.896-.708l-6.001.095-12.256.133c-8.215.724-16.592 2.342-25.049 3.988-8.157 2.965-16.776 5.069-24.973 8.745-7.96 4.25-16.474 7.66-24.292 12.644l-22.764 15.557-22.375 19.355c-6.564 6.74-12.45 13.789-18.647 20.663-5.458 7.547-10.647 15.353-15.788 22.997-3.905 8.312-8.727 16.158-11.853 24.556-2.64 8.55-6.581 16.63-7.728 25.282l-2.591 12.626c-.58 4.204-.645 8.432-.994 12.574-.917 8.307.145 16.413.697 24.27.457 7.878 2.866 15.264 4.052 22.529 2.432 6.958 4.324 13.858 7.082 20.056 5.542 12.395 11.992 23.096 19.153 31.098 6.797 8.35 14.006 14.112 19.933 18.282l8.222 4.967c2.471 1.145 4.67 1.688 6.365 2.375l5.207 1.967-10.276 31.702-7.795-3.729c-2.481-1.284-5.718-2.656-9.109-4.724-3.175-2.302-6.825-4.949-10.913-7.911-7.68-6.294-16.35-14.644-23.969-25.585-7.938-10.733-14.801-23.977-20.741-38.853-2.887-7.464-4.795-15.615-7.148-23.857-1.1-8.513-3.322-17.179-3.48-26.28-.256-9.09-.914-18.406.506-27.852.479-4.721.665-9.538 1.407-14.31l3.133-14.303c1.56-9.781 5.976-18.852 9.185-28.404 3.686-9.37 9.102-18.058 13.682-27.207 5.775-8.405 11.6-16.86 17.813-25.103l21.126-23.119 22.091-19.677c8.994-6.833 16.914-12.012 25.371-18.015 8.479-5.56 17.91-9.62 26.709-14.385 9.097-4.227 18.846-6.878 28.054-10.257 9.629-1.997 19.175-4.143 28.598-5.44l14.157-.808 6.971-.368c2.302.065 4.584.322 6.856.477 9.096.665 17.99 1.246 26.3 3.401 4.179.923 8.362 1.634 12.34 2.719l11.527 3.765c15.041 5.039 28.057 11.464 39.307 17.615 5.566 3.169 10.553 6.491 15.29 9.398l12.4 8.882c7.255 5.702 12.905 10.315 16.667 13.769l5.746 5.502-24.709 22.36zm-275.12 804.907c-.249.237-3.102 2.708-9.179 8.878-5.932 6.19-14.665 15.443-24.845 28.19-10.033 12.83-22.24 28.523-34.279 47.92-11.973 19.384-25.032 41.675-36.33 67.446-11.415 25.667-22.441 54.17-30.838 85.329-2.407 7.702-4.417 15.624-6.113 23.735-1.751 7.941-3.901 16.544-5.4 24.209-2.958 17.165-6.32 34.895-8.044 52-4.114 34.702-5.891 71.467-2.831 107.914 3.01 36.454 11.123 72.936 26.092 105.809 1.689 4.221 3.739 8.214 6.064 12.031l6.622 11.679c5.327 7.041 9.867 14.835 16.1 20.991 11.376 13.398 25.345 24.057 40.598 31.688l5.734 2.857 1.431.719.715.36.357.18c.707.276-.569-.171-.278-.072l3.343 1.203 13.333 4.801c8.158 2.03 15.927 4.329 24.609 5.287 16.905 2.353 33.947 1.889 50.038-1.594 31.882-6.605 61.246-26.688 71.116-52.234 1.463-2.931 1.664-6.673 2.591-9.079.399-3.968 1.086-8.326 1.24-11.888.511-7.124.666-14.896.448-22.392-.384-15.078-1.66-29.974-2.526-44.542-2.075-29.026-2.145-57.167 4.066-81.407 1.633-6.63 3.384-11.314 5.104-16.841 2.31-5.426 3.953-10.956 6.637-15.592 4.552-9.674 10.416-17.758 15.936-24.639 11.74-13.479 24.022-20.598 32.694-23.84 8.741-3.258 13.694-3.355 13.694-3.355s-4.831 1.204-12.331 6.089c-7.538 4.669-17.552 13.291-26.209 26.942-4.08 6.975-8.433 14.76-11.37 24.087-1.829 4.529-2.788 9.358-4.334 14.224-1.044 5.106-2.569 11.37-3.19 16.288-3.633 22.022-1.71 47.608 1.284 76.181 1.558 14.304 3.313 29.467 3.979 45.621.385 8.111.453 16.245-.025 25.221-.159 4.499-.698 8.195-1.032 12.378-1.22 5.469-1.703 10.125-3.635 14.8-6.74 18.688-19.827 33.968-35.247 45.579-15.515 11.635-33.689 19.77-52.904 24.355-19.231 4.596-39.519 5.564-59.546 3.201-9.914-.889-20.287-3.518-30.405-6.049l-13.43-4.522-3.367-1.134-1.089-.431-.443-.205-.887-.411-1.775-.825-7.104-3.325c-4.781-2.159-9.512-4.429-13.816-7.455-4.371-2.888-8.972-5.521-13.147-8.692-8.095-6.664-16.351-13.268-23.168-21.235-7.587-7.356-13.153-16.173-19.536-24.449l-7.976-13.33c-2.771-4.408-5.217-8.952-7.253-13.667-18.086-37.1-26.791-77.283-30.472-116.466-3.605-39.382-2.075-77.789 2.011-114.996 1.826-18.97 4.998-36.278 7.804-53.496 1.747-9.457 3.757-17.604 5.596-26.315 1.733-8.588 3.79-16.989 6.256-25.172 8.452-33.123 20.618-63.232 32.713-90.463 12.097-27.302 26.023-50.974 38.851-71.558 12.937-20.554 25.863-37.437 36.915-50.998 11.114-13.529 20.76-23.509 27.453-30.289 6.713-6.66 11.195-10.492 10.933-10.268l21.997 25.034z"></path><path fill="#1d110f" d="M1163.693 1799.901s1.733-8.679 5.557-20.844c3.793-12.238 9.792-28.172 16.876-43.564 7.029-15.421 15.232-30.218 21.844-40.992 3.207-5.448 6.159-9.812 8.167-12.897l3.166-4.838-2.757 5.085c-1.746 3.238-4.319 7.815-7.057 13.49-5.677 11.233-12.574 26.539-18.227 42.265-5.71 15.703-10.273 31.749-12.959 43.877-2.739 12.192-3.637 20.145-3.637 20.145l-10.973-1.727zm865.762-331.929 2.152 2.834 6.22 8.534c5.244 7.419 12.771 18.304 21.554 32.616a645.53 645.53 0 0 1 29.539 52.84c10.546 20.867 21.494 44.995 30.842 72.401 9.338 27.357 17.921 57.759 22.423 90.97 4.365 33.513 5.083 67.901 1.583 104.656-3.568 36.163-11.792 73.339-26.232 109.078-14.531 35.648-35.995 69.544-63.885 97.756-14.498 13.483-29.661 26.589-47.109 36.221a96.236 96.236 0 0 1-13.051 7.109c-4.732 2.254-8.314 4.103-13.988 6.634-8.976 3.071-16.681 6.721-27.119 9.065-19.698 5.563-39.181 7.494-59.057 5.865-19.662-1.604-39.287-7.08-56.287-17.582-17.03-10.32-30.878-26.198-38.17-44.282-7.395-18.124-8.326-37.331-6.087-54.803 1.495-8.722 3.198-17.363 5.345-24.581 1.957-7.5 4.111-15.16 6.256-22.498 4.347-14.677 9.112-28.832 13.781-42.085 4.767-13.331 8.533-25.133 10.389-37.199 1.841-11.916 3.078-24.267 3.404-35.011.388-21.161-3.975-40.44-8.841-55.579a262.697 262.697 0 0 0-13.757-34.955c-3.859-7.855-6.139-12.011-6.139-12.011s3.439 3.28 8.802 10.366c5.373 7.06 13.081 17.73 20.359 32.914 7.146 15.169 14.516 34.749 15.636 59.34.508 12.068-.078 24.009-1.58 37.456-1.415 13.371-5.259 27.513-9.376 40.804-4.067 13.438-8.026 27.216-11.636 41.755-3.372 14.106-8.028 30.353-9.622 44.18-1.388 14.339-.106 29.096 5.69 42.269 5.568 13.226 15.69 24.609 28.811 32.31 26.241 15.497 62.359 17.081 94.272 7.524 7.639-1.558 16.807-5.821 25.327-8.893l11.073-5.565a78.33 78.33 0 0 0 11.393-6.366c15.25-8.557 28.48-20.381 41.247-32.416 24.49-25.375 43.616-56.059 56.542-88.781 12.835-32.807 20.11-67.236 23.063-100.913 2.897-33.148 1.857-67.019-2.481-97.264-4.468-30.595-12.802-58.972-21.858-84.605-9.072-25.67-19.342-48.6-29.474-68.395a612.319 612.319 0 0 0-28.232-50.214c-8.387-13.598-15.544-23.882-20.443-30.781l-5.596-7.65a4231.373 4231.373 0 0 1-2.011-2.637l26.328-20.431zm-1025.909 583.575-2.413 2.686c-1.626 1.841-4.02 4.722-6.978 8.484-5.873 7.568-14.188 18.722-22.373 33.181-8.22 14.411-16.687 31.923-22.646 51.677-5.953 19.716-9.076 41.639-8.107 63.555.6 10.937 1.959 21.921 4.687 32.469 2.462 10.618 6.186 20.777 10.301 30.437 4.331 9.567 9.119 18.615 14.366 26.833 5.199 8.219 10.467 15.89 15.71 22.694 5.257 6.811 10.029 13.177 14.74 18.448 4.535 5.435 8.485 10.241 11.971 13.999 6.875 7.611 10.692 12.238 10.692 12.238s-5.084-2.996-13.786-8.727c-4.513-2.682-9.406-6.651-15.086-11.201-5.834-4.395-11.749-10.095-18.178-16.422-3.358-3.033-6.28-6.721-9.498-10.387-3.177-3.702-6.609-7.43-9.505-11.771-6.279-8.316-12.22-17.636-17.761-27.697-5.329-10.168-10.324-21.061-14.024-32.687-3.964-11.547-6.516-23.794-8.169-36.165-1.497-12.383-1.993-24.968-.942-37.225.705-12.307 2.888-24.234 5.46-35.625 5.468-22.725 13.602-43.029 22.292-59.416 8.525-16.502 17.205-29.344 23.635-38.158 3.279-4.379 5.958-7.76 7.913-10.087l3.136-3.651 24.563 22.518z"></path><path fill="#1d110f" d="m2036.909 2029.03 3.136 3.651c1.955 2.326 4.634 5.708 7.913 10.087 6.43 8.814 15.11 21.656 23.635 38.158 8.69 16.387 16.824 36.691 22.292 59.416 2.572 11.391 4.754 23.318 5.46 35.625 1.051 12.257.555 24.842-.942 37.225-1.654 12.371-4.205 24.618-8.169 36.165-3.7 11.626-8.694 22.52-14.024 32.687-5.54 10.061-11.481 19.381-17.76 27.697-2.896 4.34-6.328 8.069-9.505 11.771-3.219 3.667-6.14 7.355-9.498 10.387-6.43 6.326-12.344 12.027-18.178 16.422-5.68 4.55-10.573 8.519-15.086 11.201-8.702 5.73-13.786 8.727-13.786 8.727s3.817-4.627 10.692-12.238c3.486-3.758 7.436-8.564 11.97-13.999 4.711-5.272 9.484-11.638 14.74-18.448 5.243-6.804 10.511-14.475 15.709-22.694 5.247-8.218 10.035-17.266 14.366-26.833 4.114-9.66 7.839-19.819 10.3-30.437 2.729-10.547 4.087-21.532 4.687-32.469.969-21.916-2.154-43.84-8.107-63.555-5.959-19.754-14.426-37.265-22.646-51.677-8.184-14.458-16.499-25.613-22.373-33.181-2.958-3.761-5.352-6.643-6.978-8.484-1.574-1.75-2.413-2.686-2.413-2.686l24.565-22.518zm-713.772 247.108c-19.89-213.087-161.732-283.554-163.164-284.238l9.622-20.026c6.303 3.027 154.616 76.727 175.661 302.202l-22.119 2.062zm340.627-15.534-22.173-1.432c14.01-216.634 162.161-240.966 163.652-241.183l3.281 21.978c-5.38.825-131.96 22.662-144.76 220.637zm155.738-331.558c-352.586-92.478-646.43-1.095-649.359-.162l-6.764-21.153c2.983-.955 302.658-94.389 661.764-.163l-5.641 21.478zm17.688-93.661c-370.284-98.011-664.031-4.035-666.96-3.07l-6.932-21.11c2.978-.977 303-96.981 679.576 2.701l-5.684 21.479z"></path><path fill="#1d110f" d="M1782.598 2028.858c-248.593-58.467-459.585-33.532-567.079-12.246 7.192 5.198 13.007 11.799 17.352 19.214 105.269-19.578 297.13-39.382 523.278 9.904 7.284-7.592 16.334-13.454 26.449-16.872zm520.257 348.839c-8.798 0-16.711-2.169-23.567-6.802-48.084-32.707-2.875-158.099 63.249-267.869l19.027 11.456c-75.35 125.098-94.903 220.951-69.807 238.025 30.163 20.427 130.615-55.443 226.381-196.988 95.663-141.555 128.749-262.976 98.614-283.392-26.312-17.812-111.089 39.421-202.109 162.807l-17.877-13.191c77.058-104.466 182.718-201.577 232.429-168.025 53.339 36.146-7.935 188.885-92.653 314.244-73.94 109.282-173.86 209.723-233.687 209.735z"></path><path fill="#1d110f" d="M2634.499 2500.42c-9.568 0-18.87-1.497-27.874-4.545l-317.661-120.391 7.876-20.784 317.281 120.261c49.553 16.781 117.402-31.438 185.679-132.357 69.606-102.881 79.505-189.622 53.307-222.122l-238.183-249.828 16.077-15.339 238.791 250.524c38.31 47.47 17.335 147.347-51.593 249.22-64.275 95.004-128.37 145.361-183.7 145.361z"></path><path fill="#1d110f" d="m2481.456 2444.683-9.774-19.96c262.163-128.473 275.164-417.495 275.262-420.403l22.206.749c-.104 3.038-13.311 305.142-287.694 439.614zm-29.615-271.753c-1.915 0-3.824-.499-5.532-1.475-128.5-73.821-367.556-177.907-369.954-178.949l8.852-20.373c2.376 1.031 235.678 102.611 366.45 176.789 8.548-6.216 26.795-23.854 32.045-63.59-33.9-19.993-203.28-118.276-368.891-185.76l8.385-20.568c185.842 75.729 376.148 189.763 378.052 190.902a11.117 11.117 0 0 1 5.337 10.501c-6.221 70.621-48.328 90.689-50.118 91.514a11.121 11.121 0 0 1-4.626 1.009zm393.971 226.646c-2.153 0-4.285-.628-6.129-1.844-12.285-8.124-26.377-17.074-44.352-28.14l11.651-18.918c15.567 9.59 28.281 17.617 39.454 24.907 8.922-5.673 28.232-22.152 35.88-61.498-7.198-4.892-20.801-14.047-39.362-26.186l12.16-18.594c28.698 18.767 45.67 30.483 45.67 30.483a11.122 11.122 0 0 1 4.67 10.794c-10.501 70.121-53.817 87.543-55.656 88.259a11.252 11.252 0 0 1-3.986.737zM697.15 2377.685c-59.837.011-159.747-100.43-233.692-209.713-84.723-125.369-145.992-278.109-92.674-314.243 49.781-33.585 155.386 63.559 232.45 168.014l-17.878 13.191c-91.036-123.396-175.84-180.63-202.125-162.796-30.125 20.415 2.961 141.826 98.63 283.392 95.76 141.512 196.202 217.339 226.402 196.967 25.07-17.053 5.522-112.917-69.828-238.015l19.027-11.456c66.124 109.771 111.327 235.163 63.271 267.858-6.85 4.632-14.79 6.801-23.583 6.801z"></path><path fill="#1d110f" d="M365.588 2500.343c-55.536 0-119.572-50.355-183.786-145.287-68.933-101.883-89.908-201.75-52.2-248.526L369 1855.313l16.077 15.339-238.791 250.522c-25.596 31.806-15.697 118.547 53.914 221.428 68.277 100.919 136.104 149.063 186.053 132.226l316.907-120.13 7.876 20.784-317.287 120.261c-9.101 3.072-18.501 4.6-28.161 4.6z"></path><path fill="#1d110f" d="M518.544 2444.683c-274.383-134.472-287.59-436.577-287.693-439.614l22.206-.749c.098 2.907 13.099 291.93 275.262 420.403l-9.775 19.96zm29.615-271.753c-1.578 0-3.151-.336-4.627-1.008-1.79-.824-43.902-20.893-50.117-91.514a11.117 11.117 0 0 1 5.337-10.501c1.904-1.139 192.204-115.172 378.052-190.902l8.385 20.568c-165.659 67.507-335.001 165.779-368.89 185.76 5.25 39.801 23.502 57.407 32.029 63.602 130.777-74.178 364.085-175.77 366.46-176.8l8.852 20.373c-2.397 1.042-241.465 105.139-369.948 178.949a11.177 11.177 0 0 1-5.533 1.473zm-393.976 226.646c-1.345 0-2.701-.249-3.992-.737-1.833-.716-45.144-18.139-55.645-88.259a11.122 11.122 0 0 1 4.67-10.794s16.972-11.716 45.664-30.483l12.161 18.594c-18.555 12.139-32.159 21.294-39.362 26.186 7.659 39.4 26.968 55.857 35.869 61.509 11.228-7.333 23.941-15.349 39.465-24.918l11.651 18.918c-17.905 11.022-31.996 19.972-44.352 28.14a11.145 11.145 0 0 1-6.129 1.844zm1428.431-978.312s14.175-12.371 37.844-27.182c5.898-3.733 12.346-7.705 19.362-11.545 7.009-3.859 14.357-8.062 22.308-11.74 7.883-3.793 16.061-7.784 24.698-11.136a385.15 385.15 0 0 1 26.635-9.529c9.257-2.554 18.631-4.87 28.533-6.002l7.413-.779 1.594-.024.419.035.838.07 1.673.14 3.331.278 3.311.276 4.472 1.16c2.871.916 6.066 1.563 8.43 2.957 10.293 4.732 16.673 13.465 21.021 21.267 4.343 8.021 6.179 16.011 7.503 23.224 1.277 7.225 1.56 13.841 1.539 19.641.009 5.799-.45 10.813-.912 14.907-.997 8.193-2.242 12.729-2.242 12.729s-.632-4.666-2.176-12.577c-1.591-7.862-3.89-19.156-8.533-31.408-2.437-6.03-5.374-12.385-9.34-17.884-4.137-5.304-9.006-9.937-14.852-12.043-1.394-.739-2.684-.533-3.948-1.001l-1.887-.591-3.324.007-3.344.007-1.679.003-.841.002-.421.001h-.105c2.252-.02.571.003 1.049.003l-.187.033-6.023.839c-8.081 1.124-16.587 3.484-25.003 6.019a364.252 364.252 0 0 0-25.324 8.271c-8.285 3.12-16.642 5.836-24.549 9.006l-43.753 16.742c-25.713 9.935-43.53 15.824-43.53 15.824zm61.604-460.734-.797 2.246a146.397 146.397 0 0 0-2.069 6.491c-1.771 5.777-4.053 14.413-6.157 25.531-2.238 11.079-4.054 24.746-4.318 40.349-.336 15.569.954 33.216 5.97 51.357 4.877 18.132 13.622 36.703 27.121 53.135 3.518 3.817 7.13 8.39 10.635 11.754l6.511 5.861 6.235 4.735c8.939 6.321 19.076 11.738 29.858 16.092 21.495 9.091 45.978 13.583 70.906 15.073 24.996 1.102 50.717-.805 75.518-6.459 24.732-5.623 48.841-14.448 69.376-27.246 10.186-6.453 19.339-14.064 26.346-22.757 3.37-4.302 6.73-9.028 8.582-13.568 2.483-5.695 5.682-11.701 6.649-16.646 1.56-5.087 3.138-10.199 3.842-15.984l1.441-8.329.576-8.444.556-8.366-.192-8.366c.006-5.548-.095-11.042-.771-16.48-1.882-21.737-6.249-42.343-12.052-60.834-11.451-37.078-25.992-66.527-37.551-86.07-5.941-9.673-10.669-17.305-14.32-22.146l-5.432-7.594 8.513-7.136 6.339 7.422c4.257 4.77 9.904 12.191 16.668 21.942 6.599 9.842 14.376 21.996 21.967 36.672 7.958 14.501 15.284 31.72 22.067 50.984a307.15 307.15 0 0 1 15.371 64.514c2.911 23.768 2.697 49.034-5.317 76.058-1.789 7.265-4.592 12.394-7.06 18.312-2.978 7.155-7.049 12.951-11.461 18.763-8.957 11.372-19.976 20.607-31.732 28.285-23.602 15.401-50.305 24.642-77.301 30.457-27.052 5.855-54.771 7.642-81.939 6.157-27.121-1.902-53.936-7.034-78.282-17.581-12.123-5.346-23.518-11.857-33.898-19.711l-7.762-6.369-6.425-6.156c-4.79-4.874-8.186-9.57-12.231-14.278-14.905-19.316-24.184-40.899-28.975-61.314-5.019-20.48-5.056-39.788-3.959-56.436 1.143-16.714 3.811-31.026 6.754-42.571 2.812-11.587 5.96-20.412 8.205-26.405a154.82 154.82 0 0 1 2.73-6.878l.993-2.286 10.272 4.22z"></path><path fill="#1d110f" d="M1618.739 961.8s20.331-6.651 50.674-15.781l51.617-15.894c9.46-2.765 19.079-6.104 28.942-9.153 9.904-2.945 19.776-6.452 29.7-9.799 19.952-6.408 39.464-13.852 57.869-20.612 8.982-3.836 17.832-7.214 26.19-10.547 8.109-3.774 15.918-7.125 23.163-10.221l19.248-9.447c5.874-2.667 10.575-5.619 14.645-7.827 8.087-4.486 12.894-6.958 12.894-6.958l.694.867s-3.765 3.746-10.677 10.143c-3.513 3.108-7.559 7.305-12.942 10.999-5.252 3.895-11.143 8.445-17.854 12.966-6.828 4.268-14.266 8.896-22.284 13.56-8.157 4.311-16.775 8.891-25.862 13.283-9.232 3.966-18.619 8.54-28.476 12.332-9.902 3.618-19.859 7.666-30.015 11.039-10.215 3.206-20.384 6.565-30.531 9.349-10.072 3.064-20.177 5.371-29.913 7.689-19.476 4.651-37.89 7.902-53.722 10.242-31.686 4.673-53.178 4.865-53.178 4.865l-.182-1.095zm85.929 99.483c1.335 8.121 3.881 16.407 8.202 23.225 2.411 4.04 5.473 7.545 8.917 10.494 3.392 3.039 7.423 5.185 11.618 6.883 4.423 1.658 8.403 2.424 13.902 3.09l6.797.2c2.402-.177 4.801-.213 7.198-.477 9.602-1.092 19.119-3.883 28.071-7.875 8.937-4.001 17.402-9.227 24.57-15.496 3.424-3.193 6.826-6.572 8.997-10.176 1.189-1.806 2.001-3.441 2.612-5.306 1.03-2.718 1.236-4.529 1.644-6.359 1.208-8.627-.112-18.044-3.763-26.275-3.414-8.179-9.61-15.628-15.882-17.659l-.035-.019 6.569-.39-109.417 46.14zm-12.146-6.722 114.059-54.744 3.423-1.643 3.149 1.253.078.032c6.844 2.547 12.012 7.007 16.054 11.775 4.002 4.839 6.955 10.16 9.207 15.683 4.503 11.028 6.047 23.131 4.059 35.192-.708 3.281-1.55 6.604-2.453 8.765-1.065 3.066-2.723 6.144-4.457 8.637-3.452 5.264-7.693 9.209-11.983 13.026-8.769 7.303-18.467 12.914-28.711 17.226-10.249 4.274-21.111 7.207-32.341 8.216-2.804.242-5.65.239-8.469.355-2.925-.091-5.941-.334-8.874-.549-2.755-.505-4.76-.738-8.132-1.465-2.802-.907-5.688-1.504-8.389-2.728-5.432-2.32-10.672-5.35-15.015-9.394-4.397-3.946-8.158-8.552-11.005-13.561-2.948-4.96-5.194-10.234-6.786-15.636-1.603-5.448-2.742-10.797-3.153-16.698l-.261-3.742z"></path><path fill="#1d110f" d="M1789.453 1015.468c-8.335 6.888-19.063 11.478-31.979 12.924-6.842 5.521-15.333 9.416-25.215 11.438a56.028 56.028 0 0 1-5.355 3.955c2.686 17.137 17.171 30.344 35.062 30.344 19.81 0 35.87-16.059 35.87-35.871.001-8.704-3.225-16.579-8.383-22.79zm-284.512-54.874.787 2.363c.531 1.63 1.275 4.03 2.113 7.092 1.708 6.168 4.066 15.237 5.846 27.027 1.914 11.759 3.311 26.251 2.976 43-.375 16.68-2.114 35.909-8.918 55.867-6.572 19.913-17.718 40.594-34.267 58.52-4.444 4.335-8.241 8.712-13.442 13.146l-6.943 5.566-8.293 5.659c-11.031 6.909-22.957 12.39-35.503 16.647-25.182 8.36-52.344 11.109-79.527 10.613-27.194-.917-54.647-5.138-81.078-13.356-26.378-8.173-52.163-19.73-74.316-37.151-11.034-8.685-21.196-18.856-29.116-30.973-3.882-6.177-7.427-12.309-9.762-19.7-1.938-6.112-4.277-11.469-5.419-18.863-5.602-27.625-3.587-52.812 1.407-76.231a307.122 307.122 0 0 1 20.998-62.908c8.455-18.592 17.269-35.097 26.475-48.841 8.856-13.949 17.673-25.371 25.114-34.592 7.597-9.117 13.876-16.012 18.537-20.387l6.968-6.834 7.851 7.858-6.08 7.086c-4.063 4.5-9.446 11.685-16.216 20.797-13.236 18.446-30.317 46.499-44.991 82.424-7.411 17.908-13.577 38.049-17.367 59.535-1.153 5.358-1.738 10.821-2.221 16.349l-.929 8.317-.184 8.382-.17 8.463.701 8.424c.192 5.824 1.313 11.054 2.418 16.26.527 5.011 3.184 11.274 5.156 17.167 1.445 4.686 4.376 9.689 7.353 14.271 6.213 9.277 14.66 17.666 24.238 24.991 19.327 14.557 42.565 25.474 66.705 33.255 24.206 7.818 49.658 11.985 74.654 13.091 24.962.713 49.746-1.604 71.959-8.764 11.124-3.386 21.699-7.889 31.16-13.397l6.628-4.167 7.003-5.265c3.788-3.042 7.79-7.278 11.63-10.77 14.895-15.178 25.242-32.906 31.699-50.538 6.594-17.628 9.435-35.091 10.473-50.63 1.112-15.566.508-29.339-.745-40.573-1.117-11.259-2.628-20.064-3.883-25.973a146.132 146.132 0 0 0-1.489-6.648l-.596-2.308 10.606-3.301z"></path><path fill="#1d110f" d="M1519.324 968.483s-21.392-2.086-52.542-9.534c-15.564-3.727-33.619-8.587-52.609-14.937-9.494-3.167-19.356-6.356-29.119-10.296-9.863-3.666-19.696-7.909-29.588-12.003-9.819-4.255-19.381-9.164-28.925-13.642-9.485-4.646-18.432-10.028-27.279-14.793-8.664-5.176-16.845-10.499-24.59-15.512-7.576-5.352-14.577-10.617-21.002-15.471-6.287-5.094-11.754-10.145-16.642-14.489-5.036-4.154-8.697-8.691-11.922-12.096-6.321-6.982-9.742-11.045-9.742-11.045l.768-.803s4.57 2.887 12.23 8.068c3.86 2.559 8.282 5.913 13.898 9.087l18.341 11.107c6.944 3.722 14.428 7.748 22.172 12.222 8.032 4.056 16.55 8.202 25.159 12.815 17.737 8.355 36.517 17.49 55.827 25.631 9.591 4.211 19.115 8.573 28.721 12.379 9.556 3.906 18.842 8.079 28.022 11.668l50.016 20.382c29.42 11.768 49.085 20.187 49.085 20.187l-.279 1.075zm-81.984 88.522c-.93 5.842-2.536 11.071-4.613 16.355-2.062 5.24-4.764 10.296-8.138 14.977-3.277 4.738-7.43 8.995-12.158 12.538-4.683 3.646-10.169 6.203-15.784 8.034-2.799.981-5.726 1.322-8.597 1.979-3.423.426-5.44.482-8.229.742-2.941-.045-5.967-.07-8.888-.237-2.797-.363-5.632-.61-8.404-1.099-11.098-1.995-21.659-5.874-31.492-11.034-9.824-5.199-18.99-11.642-27.081-19.69-3.938-4.181-7.814-8.484-10.788-14.032-1.508-2.636-2.889-5.848-3.679-8.995-.708-2.234-1.255-5.617-1.671-8.949-.917-12.188 1.687-24.108 7.145-34.696 2.73-5.302 6.141-10.342 10.554-14.811 4.447-4.393 9.987-8.379 17.029-10.314l.08-.024 3.248-.971 3.265 1.939 108.79 64.584-.589 3.704zm-12.101 1.922-104.924-55.604 6.509.967-.037.017c-6.426 1.469-13.254 8.343-17.376 16.19-4.363 7.876-6.507 17.142-6.064 25.842.245 1.859.291 3.68 1.077 6.479.444 1.91 1.109 3.611 2.134 5.515 1.845 3.781 4.936 7.446 8.065 10.929 6.587 6.876 14.558 12.827 23.109 17.601 8.565 4.765 17.799 8.386 27.268 10.319 2.365.474 4.75.721 7.127 1.11l6.788.4c5.536-.178 9.569-.59 14.121-1.852 4.328-1.321 8.533-3.105 12.18-5.833 3.691-2.634 7.05-5.855 9.807-9.667 4.904-6.411 8.17-14.44 10.216-22.413z"></path><path fill="#1d110f" d="M1344.822 1005.817c7.695 7.597 17.977 13.115 30.715 15.693 6.329 6.102 14.443 10.731 24.109 13.617a56.206 56.206 0 0 0 4.985 4.411c-4.186 16.833-19.779 28.712-37.6 27.136-19.733-1.747-34.315-19.159-32.569-38.893.767-8.671 4.675-16.23 10.36-21.964z"></path><linearGradient id="q" x1="486.779" x2="487.933" y1="-6347.807" y2="-6347.807" gradientTransform="matrix(27.4867 0 0 -27.4867 -11604.889 -173438.219)" gradientUnits="userSpaceOnUse"><stop offset="0" stop-color="#fff"></stop><stop offset="1" stop-color="#fdfbf9"></stop></linearGradient><path fill="url(#q)" d="M1806.725 1042.041c0 8.755-7.098 15.853-15.853 15.853-8.756 0-15.853-7.098-15.853-15.853 0-8.755 7.098-15.853 15.853-15.853 8.755 0 15.853 7.098 15.853 15.853z"></path><linearGradient id="r" x1="484.852" x2="486.006" y1="-6347.884" y2="-6347.884" gradientTransform="matrix(27.4867 0 0 -27.4867 -11949.94 -173424.484)" gradientUnits="userSpaceOnUse"><stop offset="0" stop-color="#fff"></stop><stop offset="1" stop-color="#fdfbf9"></stop></linearGradient><path fill="url(#r)" d="M1408.7 1057.895c0 8.756-7.098 15.853-15.853 15.853-8.756 0-15.853-7.097-15.853-15.853 0-8.755 7.098-15.853 15.853-15.853 8.755-.001 15.853 7.097 15.853 15.853z"></path><linearGradient id="s" x1="495.16" x2="496.313" y1="-6323.063" y2="-6323.063" gradientTransform="matrix(81.2436 0 0 -81.2436 -38678.11 -512498.156)" gradientUnits="userSpaceOnUse"><stop offset="0" stop-color="#fff"></stop><stop offset="1" stop-color="#fdfbf9"></stop></linearGradient><ellipse cx="1597.314" cy="1210.258" fill="url(#s)" rx="46.858" ry="6.531"></ellipse><linearGradient id="t" x1="488.127" x2="489.281" y1="-6341.492" y2="-6341.492" gradientTransform="matrix(33.7046 0 0 -33.7046 -14953.241 -212527.719)" gradientUnits="userSpaceOnUse"><stop offset="0" stop-color="#fff"></stop><stop offset="1" stop-color="#fdfbf9"></stop></linearGradient><path fill="url(#t)" d="M1537.775 1209.718c0 2.938-8.703 5.319-19.439 5.319s-19.44-2.381-19.44-5.319c0-2.937 8.703-5.318 19.44-5.318 10.736 0 19.439 2.381 19.439 5.318z"></path></svg>